<svg xmlns="http://www.w3.org/2000/svg" width="50" height="50" viewBox="0 0 50 50">
  <defs>
    <style>
      .a {
        fill: none;
      }
    </style>
  </defs>
  <title>Asset 2</title>
  <g>
    <rect class="a" width="50" height="50"/>
    <path d="M0,47H10.5A1.5,1.5,0,0,1,12,48.5v0A1.5,1.5,0,0,1,10.5,50H0a0,0,0,0,1,0,0V47A0,0,0,0,1,0,47Z"/>
    <path d="M25,47H48.5A1.5,1.5,0,0,1,50,48.5v0A1.5,1.5,0,0,1,48.5,50H25a0,0,0,0,1,0,0V47a0,0,0,0,1,0,0Z" transform="translate(75 97) rotate(-180)"/>
    <path d="M17.75,36.67l-2.23,9.51a1.48,1.48,0,0,0,2.25,1.57l8.18-5.35,19.58-28L37.33,8.72Z"/>
    <path d="M41.41,2.89,38.66,6.82l8.19,5.74L49.6,8.63a2.2,2.2,0,0,0-.54-3.07L44.48,2.35A2.2,2.2,0,0,0,41.41,2.89Z"/>
  </g>
</svg>
