<svg xmlns="http://www.w3.org/2000/svg" width="50" height="50" viewBox="0 0 50 50">
  <title>Asset 52</title>
  <g>
    <polygon points="35 0 35 3 44.17 3 29.84 17.34 32.66 20.16 47 5.83 47 15 50 15 50 0 35 0"/>
    <polygon points="15 3 15 0 0 0 0 15 3 15 3 5.83 17.34 20.16 20.16 17.34 5.83 3 15 3"/>
    <polygon points="17.34 29.84 3 44.17 3 35 0 35 0 50 15 50 15 47 5.83 47 20.16 32.66 17.34 29.84"/>
    <polygon points="47 44.17 32.66 29.84 29.84 32.66 44.17 47 35 47 35 50 50 50 50 35 47 35 47 44.17"/>
  </g>
</svg>
