<svg xmlns="http://www.w3.org/2000/svg" width="320" height="300" viewBox="0 0 320 300">
  <defs>
    <style>
      .a {
        fill: #b3b3b3;
      }

      .b {
        fill: #e6e6e6;
      }

      .c, .g, .h, .i, .j, .l, .m, .n {
        fill: none;
      }

      .d {
        fill: #666;
      }

      .d, .e {
        opacity: 0.5;
      }

      .e {
        fill: #999;
      }

      .f {
        fill: gray;
      }

      .g, .h, .i, .j, .l, .m, .n {
        stroke: #404040;
        stroke-miterlimit: 10;
        stroke-width: 3px;
      }

      .h {
        stroke-dasharray: 5.6 4.67;
      }

      .i {
        stroke-dasharray: 6.34 5.28;
      }

      .j {
        stroke-dasharray: 5.75 4.79;
      }

      .k {
        fill: #404040;
      }

      .l {
        stroke-dasharray: 5.77 4.81;
      }

      .m {
        stroke-dasharray: 5.45 4.54;
      }

      .n {
        stroke-dasharray: 6.03 5.03;
      }
    </style>
  </defs>
  <title>Asset 58</title>
  <g>
    <path class="a" d="M241,84V296H79V84H241m4-4H75V300H245V80Z"/>
    <path class="b" d="M231,96V279H89V96H231m1-1H88V280H232V95Z"/>
    <path class="b" d="M112.6,96v21H89V96h23.6m1-1H88v23h25.6V95Z"/>
    <path class="b" d="M112.6,123v21H89V123h23.6m1-1H88v23h25.6V122Z"/>
    <path class="b" d="M142.2,123v21H118.6V123h23.6m1-1H117.6v23h25.6V122Z"/>
    <path class="b" d="M171.8,123v21H148.2V123h23.6m1-1H147.2v23h25.6V122Z"/>
    <path class="b" d="M201.4,123v21H177.8V123h23.6m1-1H176.8v23h25.6V122Z"/>
    <path class="b" d="M231,123v21H207.4V123H231m1-1H206.4v23H232V122Z"/>
    <path class="b" d="M112.6,150v21H89V150h23.6m1-1H88v23h25.6V149Z"/>
    <path class="b" d="M142.2,150v21H118.6V150h23.6m1-1H117.6v23h25.6V149Z"/>
    <path class="b" d="M171.8,150v21H148.2V150h23.6m1-1H147.2v23h25.6V149Z"/>
    <path class="b" d="M201.4,150v21H177.8V150h23.6m1-1H176.8v23h25.6V149Z"/>
    <path class="b" d="M231,150v21H207.4V150H231m1-1H206.4v23H232V149Z"/>
    <path class="b" d="M112.6,177v21H89V177h23.6m1-1H88v23h25.6V176Z"/>
    <path class="b" d="M142.2,177v21H118.6V177h23.6m1-1H117.6v23h25.6V176Z"/>
    <path class="b" d="M171.8,177v21H148.2V177h23.6m1-1H147.2v23h25.6V176Z"/>
    <path class="b" d="M201.4,177v21H177.8V177h23.6m1-1H176.8v23h25.6V176Z"/>
    <path class="b" d="M231,177v21H207.4V177H231m1-1H206.4v23H232V176Z"/>
    <path class="b" d="M112.6,204v21H89V204h23.6m1-1H88v23h25.6V203Z"/>
    <path class="b" d="M142.2,204v21H118.6V204h23.6m1-1H117.6v23h25.6V203Z"/>
    <path class="b" d="M171.8,204v21H148.2V204h23.6m1-1H147.2v23h25.6V203Z"/>
    <path class="b" d="M201.4,204v21H177.8V204h23.6m1-1H176.8v23h25.6V203Z"/>
    <path class="b" d="M231,204v21H207.4V204H231m1-1H206.4v23H232V203Z"/>
    <path class="b" d="M112.6,231v21H89V231h23.6m1-1H88v23h25.6V230Z"/>
    <path class="b" d="M142.2,231v21H118.6V231h23.6m1-1H117.6v23h25.6V230Z"/>
    <path class="b" d="M171.8,231v21H148.2V231h23.6m1-1H147.2v23h25.6V230Z"/>
    <path class="b" d="M201.4,231v21H177.8V231h23.6m1-1H176.8v23h25.6V230Z"/>
    <path class="b" d="M231,231v21H207.4V231H231m1-1H206.4v23H232V230Z"/>
    <path class="b" d="M112.6,258v21H89V258h23.6m1-1H88v23h25.6V257Z"/>
    <path class="b" d="M142.2,258v21H118.6V258h23.6m1-1H117.6v23h25.6V257Z"/>
    <path class="b" d="M171.8,258v21H148.2V258h23.6m1-1H147.2v23h25.6V257Z"/>
    <path class="b" d="M201.4,258v21H177.8V258h23.6m1-1H176.8v23h25.6V257Z"/>
    <path class="b" d="M231,258v21H207.4V258H231m1-1H206.4v23H232V257Z"/>
    <path class="b" d="M142.2,96v21H118.6V96h23.6m1-1H117.6v23h25.6V95Z"/>
    <path class="b" d="M171.8,96v21H148.2V96h23.6m1-1H147.2v23h25.6V95Z"/>
    <path class="b" d="M201.4,96v21H177.8V96h23.6m1-1H176.8v23h25.6V95Z"/>
    <path class="b" d="M231,96v21H207.4V96H231m1-1H206.4v23H232V95Z"/>
    <rect class="c" width="320" height="300"/>
    <rect class="d" x="88" y="95" width="84.8" height="77"/>
    <rect class="e" x="117.6" y="203" width="84.8" height="23"/>
    <rect class="e" x="117.6" y="230" width="55.2" height="50"/>
    <rect class="e" x="176.8" y="230" width="55.2" height="50"/>
    <g>
      <circle class="f" cx="136.54" cy="127.46" r="2.17"/>
      <path class="f" d="M141.9,121h-23a1,1,0,0,0-1,1v23a1,1,0,0,0,1,1h23a1,1,0,0,0,1-1V122A1,1,0,0,0,141.9,121Zm-5.32,12.8-4,4L125,130.14l-5.57,5.57V122.5h22v16.13Z"/>
    </g>
    <polygon class="f" points="163.8 209.75 160.57 209.75 159.43 209.75 156.2 209.75 155.25 209.75 155.25 210.89 155.25 212.03 156.2 212.03 156.2 210.89 159.43 210.89 159.43 218.3 158.24 218.3 158.24 219.25 159.43 219.25 160.57 219.25 161.66 219.25 161.66 218.3 160.57 218.3 160.57 210.89 163.8 210.89 163.8 212.03 164.75 212.03 164.75 210.89 164.75 209.75 163.8 209.75"/>
    <polygon class="f" points="149 250.25 145.77 250.25 144.63 250.25 141.4 250.25 140.45 250.25 140.45 251.39 140.45 252.53 141.4 252.53 141.4 251.39 144.63 251.39 144.63 258.8 143.44 258.8 143.44 259.75 144.63 259.75 145.77 259.75 146.86 259.75 146.86 258.8 145.77 258.8 145.77 251.39 149 251.39 149 252.53 149.95 252.53 149.95 251.39 149.95 250.25 149 250.25"/>
    <polygon class="f" points="208.2 250.25 204.97 250.25 203.83 250.25 200.6 250.25 199.65 250.25 199.65 251.39 199.65 252.53 200.6 252.53 200.6 251.39 203.83 251.39 203.83 258.8 202.64 258.8 202.64 259.75 203.83 259.75 204.97 259.75 206.06 259.75 206.06 258.8 204.97 258.8 204.97 251.39 208.2 251.39 208.2 252.53 209.15 252.53 209.15 251.39 209.15 250.25 208.2 250.25"/>
    <g>
      <line class="g" x1="127.58" y1="214.5" x2="124.58" y2="214.5"/>
      <line class="h" x1="119.91" y1="214.5" x2="50.33" y2="214.5"/>
      <polyline class="g" points="48 214.5 45 214.5 45 211.5"/>
      <line class="i" x1="45" y1="206.22" x2="45" y2="139.14"/>
      <polyline class="g" points="45 136.5 45 133.5 48 133.5"/>
      <line class="j" x1="52.79" y1="133.5" x2="92.58" y2="133.5"/>
      <line class="g" x1="94.98" y1="133.5" x2="97.98" y2="133.5"/>
      <rect class="k" x="124.46" y="211.53" width="5.94" height="5.94"/>
      <rect class="k" x="94.86" y="130.53" width="5.94" height="5.94"/>
    </g>
    <g>
      <line class="g" x1="190.12" y1="214.5" x2="193.12" y2="214.5"/>
      <line class="l" x1="197.93" y1="214.5" x2="269.6" y2="214.5"/>
      <polyline class="g" points="272 214.5 275 214.5 275 217.5"/>
      <line class="m" x1="275" y1="222.04" x2="275" y2="249.73"/>
      <polyline class="g" points="275 252 275 255 272 255"/>
      <line class="n" x1="266.97" y1="255" x2="225.24" y2="255"/>
      <line class="g" x1="222.72" y1="255" x2="219.72" y2="255"/>
      <rect class="k" x="187.3" y="211.53" width="5.94" height="5.94"/>
      <rect class="k" x="216.9" y="252.03" width="5.94" height="5.94"/>
    </g>
  </g>
</svg>
