<svg xmlns="http://www.w3.org/2000/svg" width="320" height="300" viewBox="0 0 320 300">
  <defs>
    <style>
      .a {
        fill: none;
      }

      .b {
        fill: #fff;
      }

      .c {
        fill: #b3b3b3;
      }

      .d {
        fill: #e6e6e6;
      }

      .e {
        fill: #666;
      }

      .e, .f {
        opacity: 0.5;
      }

      .f {
        fill: #999;
      }

      .g {
        fill: gray;
      }

      .h {
        fill: #404040;
      }
    </style>
  </defs>
  <title>Asset 63</title>
  <g>
    <rect class="a" width="320" height="300"/>
    <g>
      <g>
        <rect class="b" x="82.19" y="95.62" width="155.63" height="202.5"/>
        <path class="c" d="M235.94,97.5V296.25H84.06V97.5H235.94m3.75-3.75H80.31V300H239.69V93.75Z"/>
      </g>
      <path class="d" d="M226.56,108.75V280.31H93.44V108.75H226.56m.94-.94H92.5V281.25h135V107.81Z"/>
      <path class="d" d="M115.56,108.75v19.69H93.44V108.75h22.12m.94-.94h-24v21.56h24V107.81Z"/>
      <path class="d" d="M115.56,134.06v19.69H93.44V134.06h22.12m.94-.94h-24v21.56h24V133.12Z"/>
      <path class="d" d="M143.31,134.06v19.69H121.19V134.06h22.13m.94-.94h-24v21.56h24V133.12Z"/>
      <path class="d" d="M171.06,134.06v19.69H148.94V134.06h22.13m.94-.94H148v21.56h24V133.12Z"/>
      <path class="d" d="M198.81,134.06v19.69H176.69V134.06h22.13m.94-.94h-24v21.56h24V133.12Z"/>
      <path class="d" d="M226.56,134.06v19.69H204.44V134.06h22.13m.94-.94h-24v21.56h24V133.12Z"/>
      <path class="d" d="M115.56,159.37v19.69H93.44V159.37h22.12m.94-.94h-24V180h24V158.44Z"/>
      <path class="d" d="M143.31,159.37v19.69H121.19V159.37h22.13m.94-.94h-24V180h24V158.44Z"/>
      <path class="d" d="M171.06,159.37v19.69H148.94V159.37h22.13m.94-.94H148V180h24V158.44Z"/>
      <path class="d" d="M198.81,159.37v19.69H176.69V159.37h22.13m.94-.94h-24V180h24V158.44Z"/>
      <path class="d" d="M226.56,159.37v19.69H204.44V159.37h22.13m.94-.94h-24V180h24V158.44Z"/>
      <path class="d" d="M115.56,184.69v19.69H93.44V184.69h22.12m.94-.94h-24v21.56h24V183.75Z"/>
      <path class="d" d="M143.31,184.69v19.69H121.19V184.69h22.13m.94-.94h-24v21.56h24V183.75Z"/>
      <path class="d" d="M171.06,184.69v19.69H148.94V184.69h22.13m.94-.94H148v21.56h24V183.75Z"/>
      <path class="d" d="M198.81,184.69v19.69H176.69V184.69h22.13m.94-.94h-24v21.56h24V183.75Z"/>
      <path class="d" d="M226.56,184.69v19.69H204.44V184.69h22.13m.94-.94h-24v21.56h24V183.75Z"/>
      <path class="d" d="M115.56,210v19.69H93.44V210h22.12m.94-.94h-24v21.56h24V209.06Z"/>
      <path class="d" d="M143.31,210v19.69H121.19V210h22.13m.94-.94h-24v21.56h24V209.06Z"/>
      <path class="d" d="M171.06,210v19.69H148.94V210h22.13m.94-.94H148v21.56h24V209.06Z"/>
      <path class="d" d="M198.81,210v19.69H176.69V210h22.13m.94-.94h-24v21.56h24V209.06Z"/>
      <path class="d" d="M226.56,210v19.69H204.44V210h22.13m.94-.94h-24v21.56h24V209.06Z"/>
      <path class="d" d="M115.56,235.31V255H93.44V235.31h22.12m.94-.94h-24v21.56h24V234.37Z"/>
      <path class="d" d="M143.31,235.31V255H121.19V235.31h22.13m.94-.94h-24v21.56h24V234.37Z"/>
      <path class="d" d="M171.06,235.31V255H148.94V235.31h22.13m.94-.94H148v21.56h24V234.37Z"/>
      <path class="d" d="M198.81,235.31V255H176.69V235.31h22.13m.94-.94h-24v21.56h24V234.37Z"/>
      <path class="d" d="M226.56,235.31V255H204.44V235.31h22.13m.94-.94h-24v21.56h24V234.37Z"/>
      <path class="d" d="M115.56,260.62v19.69H93.44V260.62h22.12m.94-.94h-24v21.56h24V259.69Z"/>
      <path class="d" d="M143.31,260.62v19.69H121.19V260.62h22.13m.94-.94h-24v21.56h24V259.69Z"/>
      <path class="d" d="M171.06,260.62v19.69H148.94V260.62h22.13m.94-.94H148v21.56h24V259.69Z"/>
      <path class="d" d="M198.81,260.62v19.69H176.69V260.62h22.13m.94-.94h-24v21.56h24V259.69Z"/>
      <path class="d" d="M226.56,260.62v19.69H204.44V260.62h22.13m.94-.94h-24v21.56h24V259.69Z"/>
      <path class="d" d="M143.31,108.75v19.69H121.19V108.75h22.13m.94-.94h-24v21.56h24V107.81Z"/>
      <path class="d" d="M171.06,108.75v19.69H148.94V108.75h22.13m.94-.94H148v21.56h24V107.81Z"/>
      <path class="d" d="M198.81,108.75v19.69H176.69V108.75h22.13m.94-.94h-24v21.56h24V107.81Z"/>
      <path class="d" d="M226.56,108.75v19.69H204.44V108.75h22.13m.94-.94h-24v21.56h24V107.81Z"/>
      <rect class="e" x="92.5" y="107.81" width="79.5" height="72.19"/>
      <rect class="f" x="120.25" y="209.06" width="79.5" height="21.56"/>
      <rect class="f" x="120.25" y="234.37" width="51.75" height="46.88"/>
      <rect class="f" x="175.75" y="234.37" width="51.75" height="46.88"/>
      <g>
        <circle class="g" cx="138" cy="138.24" r="2.04"/>
        <path class="g" d="M143,132.19H121.47a.94.94,0,0,0-.94.94v21.56a.94.94,0,0,0,.94.94H143a.94.94,0,0,0,.94-.94V133.12A.94.94,0,0,0,143,132.19Zm-5,12-3.72,3.72-7.16-7.16L121.94,146V133.59h20.63v15.12Z"/>
      </g>
      <polygon class="g" points="163.56 215.39 160.53 215.39 159.47 215.39 156.44 215.39 155.55 215.39 155.55 216.46 155.55 217.53 156.44 217.53 156.44 216.46 159.47 216.46 159.47 223.41 158.35 223.41 158.35 224.3 159.47 224.3 160.53 224.3 161.56 224.3 161.56 223.41 160.53 223.41 160.53 216.46 163.56 216.46 163.56 217.53 164.45 217.53 164.45 216.46 164.45 215.39 163.56 215.39"/>
      <polygon class="g" points="149.69 253.36 146.66 253.36 145.59 253.36 142.56 253.36 141.67 253.36 141.67 254.43 141.67 255.5 142.56 255.5 142.56 254.43 145.59 254.43 145.59 261.38 144.48 261.38 144.48 262.26 145.59 262.26 146.66 262.26 147.68 262.26 147.68 261.38 146.66 261.38 146.66 254.43 149.69 254.43 149.69 255.5 150.58 255.5 150.58 254.43 150.58 253.36 149.69 253.36"/>
      <polygon class="g" points="205.19 253.36 202.16 253.36 201.09 253.36 198.06 253.36 197.17 253.36 197.17 254.43 197.17 255.5 198.06 255.5 198.06 254.43 201.09 254.43 201.09 261.38 199.98 261.38 199.98 262.26 201.09 262.26 202.16 262.26 203.18 262.26 203.18 261.38 202.16 261.38 202.16 254.43 205.19 254.43 205.19 255.5 206.08 255.5 206.08 254.43 206.08 253.36 205.19 253.36"/>
    </g>
    <g>
      <g>
        <rect class="b" x="246.39" y="136.72" width="69.72" height="90.81"/>
        <path class="h" d="M315.11,137.72v88.81H247.39V137.72h67.72m2-2H245.39v92.81h71.72V135.72Z"/>
      </g>
      <rect class="e" x="250.87" y="176.22" width="35.77" height="32.48"/>
      <rect class="f" x="275.85" y="153.43" width="35.77" height="9.7"/>
      <rect class="f" x="288.33" y="164.83" width="23.29" height="21.09"/>
      <rect class="f" x="288.33" y="199" width="23.29" height="21.09"/>
    </g>
    <g>
      <g>
        <rect class="b" x="221.39" y="101.72" width="69.72" height="90.81"/>
        <path class="h" d="M290.11,102.72v88.81H222.39V102.72h67.72m2-2H220.39v92.81h71.72V100.72Z"/>
      </g>
      <rect class="e" x="250.85" y="107.04" width="35.77" height="32.48"/>
      <rect class="f" x="225.87" y="141.22" width="35.77" height="9.7"/>
      <rect class="f" x="263.33" y="141.22" width="23.29" height="21.09"/>
      <rect class="f" x="263.33" y="164" width="23.29" height="21.09"/>
    </g>
    <g>
      <g>
        <rect class="b" x="196.39" y="66.72" width="69.72" height="90.81"/>
        <path class="h" d="M265.11,67.72v88.81H197.39V67.72h67.72m2-2H195.39v92.81h71.72V65.72Z"/>
      </g>
      <rect class="e" x="200.87" y="117.61" width="35.77" height="32.48"/>
      <rect class="f" x="200.92" y="83.43" width="35.77" height="9.7"/>
      <rect class="f" x="238.33" y="94.83" width="23.29" height="21.09"/>
      <rect class="f" x="238.33" y="117.61" width="23.29" height="21.09"/>
    </g>
  </g>
</svg>
