<svg xmlns="http://www.w3.org/2000/svg" width="320" height="300" viewBox="0 0 320 300">
  <defs>
    <style>
      .a {
        fill: #b3b3b3;
      }

      .b {
        fill: #e6e6e6;
      }

      .c {
        fill: none;
      }

      .d {
        fill: #666;
      }

      .d, .e {
        opacity: 0.5;
      }

      .e {
        fill: #999;
      }

      .f {
        fill: #404040;
      }
    </style>
  </defs>
  <title>Asset 57</title>
  <g>
    <path class="a" d="M241,84V296H79V84H241m4-4H75V300H245V80Z"/>
    <path class="b" d="M231,96V279H89V96H231m1-1H88V280H232V95Z"/>
    <path class="b" d="M112.6,96v21H89V96h23.6m1-1H88v23h25.6V95Z"/>
    <path class="b" d="M112.6,123v21H89V123h23.6m1-1H88v23h25.6V122Z"/>
    <path class="b" d="M142.2,123v21H118.6V123h23.6m1-1H117.6v23h25.6V122Z"/>
    <path class="b" d="M171.8,123v21H148.2V123h23.6m1-1H147.2v23h25.6V122Z"/>
    <path class="b" d="M201.4,123v21H177.8V123h23.6m1-1H176.8v23h25.6V122Z"/>
    <path class="b" d="M231,123v21H207.4V123H231m1-1H206.4v23H232V122Z"/>
    <path class="b" d="M112.6,150v21H89V150h23.6m1-1H88v23h25.6V149Z"/>
    <path class="b" d="M142.2,150v21H118.6V150h23.6m1-1H117.6v23h25.6V149Z"/>
    <path class="b" d="M171.8,150v21H148.2V150h23.6m1-1H147.2v23h25.6V149Z"/>
    <path class="b" d="M201.4,150v21H177.8V150h23.6m1-1H176.8v23h25.6V149Z"/>
    <path class="b" d="M231,150v21H207.4V150H231m1-1H206.4v23H232V149Z"/>
    <path class="b" d="M112.6,177v21H89V177h23.6m1-1H88v23h25.6V176Z"/>
    <path class="b" d="M142.2,177v21H118.6V177h23.6m1-1H117.6v23h25.6V176Z"/>
    <path class="b" d="M171.8,177v21H148.2V177h23.6m1-1H147.2v23h25.6V176Z"/>
    <path class="b" d="M201.4,177v21H177.8V177h23.6m1-1H176.8v23h25.6V176Z"/>
    <path class="b" d="M231,177v21H207.4V177H231m1-1H206.4v23H232V176Z"/>
    <path class="b" d="M112.6,204v21H89V204h23.6m1-1H88v23h25.6V203Z"/>
    <path class="b" d="M142.2,204v21H118.6V204h23.6m1-1H117.6v23h25.6V203Z"/>
    <path class="b" d="M171.8,204v21H148.2V204h23.6m1-1H147.2v23h25.6V203Z"/>
    <path class="b" d="M201.4,204v21H177.8V204h23.6m1-1H176.8v23h25.6V203Z"/>
    <path class="b" d="M231,204v21H207.4V204H231m1-1H206.4v23H232V203Z"/>
    <path class="b" d="M112.6,231v21H89V231h23.6m1-1H88v23h25.6V230Z"/>
    <path class="b" d="M142.2,231v21H118.6V231h23.6m1-1H117.6v23h25.6V230Z"/>
    <path class="b" d="M171.8,231v21H148.2V231h23.6m1-1H147.2v23h25.6V230Z"/>
    <path class="b" d="M201.4,231v21H177.8V231h23.6m1-1H176.8v23h25.6V230Z"/>
    <path class="b" d="M231,231v21H207.4V231H231m1-1H206.4v23H232V230Z"/>
    <path class="b" d="M112.6,258v21H89V258h23.6m1-1H88v23h25.6V257Z"/>
    <path class="b" d="M142.2,258v21H118.6V258h23.6m1-1H117.6v23h25.6V257Z"/>
    <path class="b" d="M171.8,258v21H148.2V258h23.6m1-1H147.2v23h25.6V257Z"/>
    <path class="b" d="M201.4,258v21H177.8V258h23.6m1-1H176.8v23h25.6V257Z"/>
    <path class="b" d="M231,258v21H207.4V258H231m1-1H206.4v23H232V257Z"/>
    <path class="b" d="M142.2,96v21H118.6V96h23.6m1-1H117.6v23h25.6V95Z"/>
    <path class="b" d="M171.8,96v21H148.2V96h23.6m1-1H147.2v23h25.6V95Z"/>
    <path class="b" d="M201.4,96v21H177.8V96h23.6m1-1H176.8v23h25.6V95Z"/>
    <path class="b" d="M231,96v21H207.4V96H231m1-1H206.4v23H232V95Z"/>
    <rect class="c" width="320" height="300"/>
    <rect class="d" x="88" y="95" width="84.8" height="77"/>
    <rect class="e" x="117.6" y="203" width="84.8" height="23"/>
    <rect class="e" x="117.6" y="230" width="55.2" height="50"/>
    <rect class="e" x="176.8" y="230" width="55.2" height="50"/>
    <circle class="f" cx="88" cy="95" r="3.13"/>
    <circle class="f" cx="172.8" cy="95" r="3.13"/>
    <circle class="f" cx="88" cy="172" r="3.13"/>
    <circle class="f" cx="172.8" cy="172" r="3.13"/>
    <g>
      <circle class="f" cx="136.54" cy="127.46" r="2.17"/>
      <path class="f" d="M141.9,121h-23a1,1,0,0,0-1,1v23a1,1,0,0,0,1,1h23a1,1,0,0,0,1-1V122A1,1,0,0,0,141.9,121Zm-5.32,12.8-4,4L125,130.14l-5.57,5.57V122.5h22v16.13Z"/>
    </g>
    <polygon class="f" points="163.8 209.75 160.57 209.75 159.43 209.75 156.2 209.75 155.25 209.75 155.25 210.89 155.25 212.03 156.2 212.03 156.2 210.89 159.43 210.89 159.43 218.3 158.24 218.3 158.24 219.25 159.43 219.25 160.57 219.25 161.66 219.25 161.66 218.3 160.57 218.3 160.57 210.89 163.8 210.89 163.8 212.03 164.75 212.03 164.75 210.89 164.75 209.75 163.8 209.75"/>
    <polygon class="f" points="149 250.25 145.77 250.25 144.63 250.25 141.4 250.25 140.45 250.25 140.45 251.39 140.45 252.53 141.4 252.53 141.4 251.39 144.63 251.39 144.63 258.8 143.44 258.8 143.44 259.75 144.63 259.75 145.77 259.75 146.86 259.75 146.86 258.8 145.77 258.8 145.77 251.39 149 251.39 149 252.53 149.95 252.53 149.95 251.39 149.95 250.25 149 250.25"/>
    <polygon class="f" points="208.2 250.25 204.97 250.25 203.83 250.25 200.6 250.25 199.65 250.25 199.65 251.39 199.65 252.53 200.6 252.53 200.6 251.39 203.83 251.39 203.83 258.8 202.64 258.8 202.64 259.75 203.83 259.75 204.97 259.75 206.06 259.75 206.06 258.8 204.97 258.8 204.97 251.39 208.2 251.39 208.2 252.53 209.15 252.53 209.15 251.39 209.15 250.25 208.2 250.25"/>
  </g>
</svg>
