<svg xmlns="http://www.w3.org/2000/svg" width="320" height="300" viewBox="0 0 320 300">
  <defs>
    <style>
      .a {
        fill: #b3b3b3;
      }

      .b, .d {
        fill: none;
      }

      .b {
        stroke: #404040;
        stroke-miterlimit: 10;
        stroke-width: 3px;
      }

      .c {
        fill: #404040;
      }
    </style>
  </defs>
  <title>Asset 56</title>
  <g>
    <path class="a" d="M241,84V296H79V84H241m4-4H75V300H245V80Z"/>
    <path class="a" d="M231,96V279H89V96H231m1-1H88V280H232V95Z"/>
    <path class="a" d="M112.6,96v21H89V96h23.6m1-1H88v23h25.6V95Z"/>
    <path class="a" d="M112.6,123v21H89V123h23.6m1-1H88v23h25.6V122Z"/>
    <path class="a" d="M142.2,123v21H118.6V123h23.6m1-1H117.6v23h25.6V122Z"/>
    <path class="a" d="M171.8,123v21H148.2V123h23.6m1-1H147.2v23h25.6V122Z"/>
    <path class="a" d="M201.4,123v21H177.8V123h23.6m1-1H176.8v23h25.6V122Z"/>
    <path class="a" d="M231,123v21H207.4V123H231m1-1H206.4v23H232V122Z"/>
    <path class="a" d="M112.6,150v21H89V150h23.6m1-1H88v23h25.6V149Z"/>
    <path class="a" d="M142.2,150v21H118.6V150h23.6m1-1H117.6v23h25.6V149Z"/>
    <path class="a" d="M171.8,150v21H148.2V150h23.6m1-1H147.2v23h25.6V149Z"/>
    <path class="a" d="M201.4,150v21H177.8V150h23.6m1-1H176.8v23h25.6V149Z"/>
    <path class="a" d="M231,150v21H207.4V150H231m1-1H206.4v23H232V149Z"/>
    <path class="a" d="M112.6,177v21H89V177h23.6m1-1H88v23h25.6V176Z"/>
    <path class="a" d="M142.2,177v21H118.6V177h23.6m1-1H117.6v23h25.6V176Z"/>
    <path class="a" d="M171.8,177v21H148.2V177h23.6m1-1H147.2v23h25.6V176Z"/>
    <path class="a" d="M201.4,177v21H177.8V177h23.6m1-1H176.8v23h25.6V176Z"/>
    <path class="a" d="M231,177v21H207.4V177H231m1-1H206.4v23H232V176Z"/>
    <path class="a" d="M112.6,204v21H89V204h23.6m1-1H88v23h25.6V203Z"/>
    <path class="a" d="M142.2,204v21H118.6V204h23.6m1-1H117.6v23h25.6V203Z"/>
    <path class="a" d="M171.8,204v21H148.2V204h23.6m1-1H147.2v23h25.6V203Z"/>
    <path class="a" d="M201.4,204v21H177.8V204h23.6m1-1H176.8v23h25.6V203Z"/>
    <path class="a" d="M231,204v21H207.4V204H231m1-1H206.4v23H232V203Z"/>
    <path class="a" d="M112.6,231v21H89V231h23.6m1-1H88v23h25.6V230Z"/>
    <path class="a" d="M142.2,231v21H118.6V231h23.6m1-1H117.6v23h25.6V230Z"/>
    <path class="a" d="M171.8,231v21H148.2V231h23.6m1-1H147.2v23h25.6V230Z"/>
    <path class="a" d="M201.4,231v21H177.8V231h23.6m1-1H176.8v23h25.6V230Z"/>
    <path class="a" d="M231,231v21H207.4V231H231m1-1H206.4v23H232V230Z"/>
    <path class="a" d="M112.6,258v21H89V258h23.6m1-1H88v23h25.6V257Z"/>
    <path class="a" d="M142.2,258v21H118.6V258h23.6m1-1H117.6v23h25.6V257Z"/>
    <path class="a" d="M171.8,258v21H148.2V258h23.6m1-1H147.2v23h25.6V257Z"/>
    <path class="a" d="M201.4,258v21H177.8V258h23.6m1-1H176.8v23h25.6V257Z"/>
    <path class="a" d="M231,258v21H207.4V258H231m1-1H206.4v23H232V257Z"/>
    <path class="a" d="M142.2,96v21H118.6V96h23.6m1-1H117.6v23h25.6V95Z"/>
    <path class="a" d="M171.8,96v21H148.2V96h23.6m1-1H147.2v23h25.6V95Z"/>
    <path class="a" d="M201.4,96v21H177.8V96h23.6m1-1H176.8v23h25.6V95Z"/>
    <path class="a" d="M231,96v21H207.4V96H231m1-1H206.4v23H232V95Z"/>
    <g>
      <line class="b" x1="76.13" y1="60" x2="243.87" y2="60"/>
      <rect class="c" x="75" y="52.69" width="2.25" height="14.63"/>
      <rect class="c" x="242.75" y="52.69" width="2.25" height="14.63"/>
    </g>
    <g>
      <line class="b" x1="265" y1="123.12" x2="265" y2="143.87"/>
      <rect class="c" x="257.69" y="122" width="14.63" height="2.25"/>
      <rect class="c" x="257.69" y="142.75" width="14.63" height="2.25"/>
    </g>
    <g>
      <line class="b" x1="265" y1="177.12" x2="265" y2="224.87"/>
      <rect class="c" x="257.69" y="176" width="14.63" height="2.25"/>
      <rect class="c" x="257.69" y="223.75" width="14.63" height="2.25"/>
    </g>
    <rect class="d" width="320" height="300"/>
  </g>
</svg>
